<?xml version="1.0" encoding="UTF-8" standalone="no"?>
<svg
  width="128"
  height="128"
  viewBox="0 0 128 128"
  xmlns="http://www.w3.org/2000/svg"
>
  <!-- Background circle -->
  <circle cx="64" cy="64" r="60" fill="#2C3E50" />

  <!-- Data transformation representation -->
  <!-- CSV representation (left) - striped rectangle -->
  <rect x="20" y="40" width="28" height="48" rx="3" fill="#3498DB" />
  <rect x="20" y="48" width="28" height="2" fill="#2C3E50" />
  <rect x="20" y="56" width="28" height="2" fill="#2C3E50" />
  <rect x="20" y="64" width="28" height="2" fill="#2C3E50" />
  <rect x="20" y="72" width="28" height="2" fill="#2C3E50" />
  <rect x="20" y="80" width="28" height="2" fill="#2C3E50" />

  <!-- JSON representation (right) - curly braces -->
  <rect x="80" y="40" width="28" height="48" rx="3" fill="#E74C3C" />
  <path
    d="M88,48 C90,50 90,52 88,54 C90,56 90,58 88,60"
    stroke="#2C3E50"
    stroke-width="2.5"
    fill="none"
  />
  <path
    d="M100,48 C98,50 98,52 100,54 C98,56 98,58 100,60"
    stroke="#2C3E50"
    stroke-width="2.5"
    fill="none"
  />
  <path
    d="M88,68 C90,70 90,72 88,74 C90,76 90,78 88,80"
    stroke="#2C3E50"
    stroke-width="2.5"
    fill="none"
  />
  <path
    d="M100,68 C98,70 98,72 100,74 C98,76 98,78 100,80"
    stroke="#2C3E50"
    stroke-width="2.5"
    fill="none"
  />

  <!-- Excel representation (middle/top) - table icon -->
  <rect x="47" y="25" width="34" height="34" rx="3" fill="#2ECC71" />
  <line x1="47" y1="32" x2="81" y2="32" stroke="#2C3E50" stroke-width="2" />
  <line x1="47" y1="39" x2="81" y2="39" stroke="#2C3E50" stroke-width="2" />
  <line x1="47" y1="46" x2="81" y2="46" stroke="#2C3E50" stroke-width="2" />
  <line x1="47" y1="53" x2="81" y2="53" stroke="#2C3E50" stroke-width="2" />
  <line x1="54" y1="25" x2="54" y2="59" stroke="#2C3E50" stroke-width="2" />
  <line x1="61" y1="25" x2="61" y2="59" stroke="#2C3E50" stroke-width="2" />
  <line x1="68" y1="25" x2="68" y2="59" stroke="#2C3E50" stroke-width="2" />
  <line x1="75" y1="25" x2="75" y2="59" stroke="#2C3E50" stroke-width="2" />

  <!-- Transformation arrows connecting the data formats -->
  <path
    d="M48,64 C56,70 56,58 64,64"
    stroke="white"
    stroke-width="2.5"
    stroke-linecap="round"
    fill="none"
  />
  <polygon points="64,64 59,59 59,69" fill="white" />

  <path
    d="M64,64 C72,70 72,58 80,64"
    stroke="white"
    stroke-width="2.5"
    stroke-linecap="round"
    fill="none"
  />
  <polygon points="80,64 75,59 75,69" fill="white" />

  <path
    d="M64,59 C56,52 72,52 64,40"
    stroke="white"
    stroke-width="2.5"
    stroke-linecap="round"
    fill="none"
  />
  <polygon points="64,40 69,44 60,44" fill="white" />
</svg>
